<svg xmlns="http://www.w3.org/2000/svg" xmlns:xlink="http://www.w3.org/1999/xlink" width="500" zoomAndPan="magnify" viewBox="0 0 375 374.999991" height="500" preserveAspectRatio="xMidYMid meet" version="1.0"><defs><clipPath id="02f970675c"><path d="M 75 0 L 300 0 C 341.421875 0 375 33.578125 375 75 L 375 300 C 375 341.421875 341.421875 375 300 375 L 75 375 C 33.578125 375 0 341.421875 0 300 L 0 75 C 0 33.578125 33.578125 0 75 0 Z M 75 0 " clip-rule="nonzero"/></clipPath><clipPath id="81810bb3db"><path d="M 0 0 L 375 0 L 375 375 L 0 375 Z M 0 0 " clip-rule="nonzero"/></clipPath><clipPath id="76ace64324"><path d="M 75 0 L 300 0 C 341.421875 0 375 33.578125 375 75 L 375 300 C 375 341.421875 341.421875 375 300 375 L 75 375 C 33.578125 375 0 341.421875 0 300 L 0 75 C 0 33.578125 33.578125 0 75 0 Z M 75 0 " clip-rule="nonzero"/></clipPath><clipPath id="a80de035b9"><rect x="0" width="375" y="0" height="375"/></clipPath><clipPath id="aa2375206f"><path d="M 72.332031 42 L 301 42 L 301 333.714844 L 72.332031 333.714844 Z M 72.332031 42 " clip-rule="nonzero"/></clipPath></defs><g clip-path="url(#02f970675c)"><g transform="matrix(1, 0, 0, 1, 0, 0)"><g clip-path="url(#a80de035b9)"><g clip-path="url(#81810bb3db)"><g clip-path="url(#76ace64324)"><rect x="-82.5" width="540" fill="#ffffff" height="539.999987" y="-82.499998" fill-opacity="1"/></g></g></g></g></g><g clip-path="url(#aa2375206f)"><path fill="#000000" d="M 115.847656 53.894531 C 117.832031 53.277344 119.285156 51.949219 121.34375 51.28125 C 123.222656 50.675781 128.015625 49.535156 129.566406 50.773438 C 130.757812 51.726562 128.300781 57.152344 127.480469 58.464844 C 131.230469 58.125 134.5625 57.734375 138.242188 58.917969 C 138.285156 63.648438 134.988281 68.085938 131.640625 71.160156 L 131.640625 71.765625 C 132.128906 71.792969 132.539062 72.03125 132.886719 72.371094 C 142.25 81.308594 148.90625 94.023438 153.855469 105.871094 C 160.957031 122.878906 162.605469 136.269531 180.945312 145.296875 C 191.03125 150.257812 220.0625 160.128906 230.714844 159.863281 C 239 159.660156 243.632812 152.199219 249.253906 147.21875 C 259.835938 137.855469 273.804688 129.277344 288.066406 136.679688 C 290.589844 137.992188 297.332031 142.167969 293.769531 145.171875 L 289.589844 147.21875 C 297.855469 151.683594 302.464844 161.046875 299.273438 170.214844 C 298.4375 172.621094 296.15625 176.460938 293.332031 174.046875 C 293.652344 176.640625 294.890625 178.789062 295.292969 181.433594 C 295.960938 185.851562 295.523438 191.429688 293.242188 195.375 C 292.273438 197.0625 290.828125 199.144531 288.753906 197.53125 C 288.085938 197.015625 288.175781 196.160156 287.507812 196.082031 C 288.460938 200.730469 284.273438 213.605469 278.972656 213.980469 C 275.980469 214.183594 276.746094 212.179688 274.617188 211.457031 C 274.394531 213.785156 271.027344 220.644531 269.046875 221.464844 C 267.453125 222.125 265.894531 222.007812 265.449219 220.199219 L 264.851562 220.199219 C 262.714844 222.667969 259.625 227.566406 256.320312 223.726562 C 255.207031 222.433594 255.132812 220.421875 253.832031 219.359375 C 250.316406 231.476562 244.488281 243.730469 234.714844 251.996094 C 233.59375 252.941406 228.785156 255.792969 228.507812 256.183594 C 227.882812 257.085938 227.214844 260.703125 226.601562 262.171875 C 223.410156 269.769531 217.890625 277.050781 210.253906 280.535156 L 208.9375 300.632812 C 209.015625 301.835938 210.371094 301.621094 211.171875 302.140625 C 212.730469 303.15625 213.605469 304.832031 212.890625 306.65625 C 211.8125 308.074219 210.148438 307.984375 208.527344 307.902344 L 208.171875 311.359375 C 208.382812 312.234375 214.734375 314.890625 216.144531 315.878906 C 218.09375 317.242188 225.542969 324.886719 220.695312 326.132812 C 219.699219 326.390625 211.785156 324.40625 210.101562 323.996094 C 207.824219 323.441406 205.640625 322.523438 203.34375 322.035156 C 201.140625 323.566406 199.109375 325.367188 196.75 326.683594 C 194.390625 328.003906 191.691406 328.777344 189.257812 330 C 186.828125 331.21875 184.921875 332.878906 182.550781 333.707031 C 179.976562 333.464844 181.75 328.671875 182.390625 327.292969 C 183.175781 325.597656 184.617188 324.539062 185.25 322.871094 L 168.804688 322.480469 C 168.207031 316.972656 175.398438 314.746094 179.761719 313.847656 C 183.113281 313.160156 191.476562 313.027344 193.722656 311.59375 C 196.179688 310.015625 196.742188 303.839844 196.910156 301.0625 C 197.277344 294.984375 196.304688 289 195.601562 283.003906 C 188.234375 281.539062 180.625 277.699219 176.519531 271.320312 L 175.699219 271.320312 C 172.699219 276.152344 167.550781 279.382812 162.363281 281.585938 L 157.429688 297.898438 C 162.25 299.128906 162.105469 306.175781 156.164062 303.753906 L 155.121094 309.179688 C 157.882812 311.449219 161.285156 312.847656 163.628906 315.609375 C 164.777344 316.964844 167.511719 320.574219 164.886719 321.839844 C 161.707031 323.371094 152.226562 318.953125 148.503906 318.71875 C 145.769531 320.101562 143.445312 322.070312 140.636719 323.363281 C 137.109375 324.984375 133.503906 325.5625 129.972656 326.835938 C 126.527344 328.085938 122.660156 332.09375 124.433594 324.617188 L 128.300781 318.71875 C 125.964844 319.65625 123.078125 318.523438 120.613281 318.308594 C 117.28125 318.023438 110.957031 319.789062 115.007812 314.363281 C 119.871094 307.851562 131.941406 309.8125 138.882812 308.722656 C 142.480469 308.164062 144.316406 300.867188 145.066406 297.863281 C 146.355469 292.695312 147.203125 287.332031 147.023438 281.996094 C 137.476562 278.839844 130.375 271.6875 126.5625 262.464844 C 125.207031 259.195312 124.621094 255.695312 123.300781 252.425781 C 100.523438 241.089844 83.839844 221.269531 78.628906 196.089844 C 74.519531 176.210938 77.84375 159.355469 84.230469 140.574219 C 84.488281 139.808594 85.363281 138.515625 85.398438 138.015625 C 85.453125 137.347656 84.730469 136.714844 84.648438 135.96875 C 84.488281 134.535156 89.558594 125.070312 90.546875 122.78125 C 92.355469 118.601562 93.921875 114.316406 95.464844 110.03125 C 87.277344 112.910156 82.40625 107.128906 84.363281 99.136719 C 85.191406 95.742188 87.945312 92.167969 88.632812 89.253906 C 88.746094 88.773438 88.996094 88.550781 88.417969 88.195312 C 86.324219 86.910156 75.574219 89.167969 72.613281 89.246094 C 72.535156 79.410156 82.066406 73.171875 90.484375 70.527344 C 90.476562 69.003906 88.96875 68.292969 88.320312 67.089844 C 85.023438 60.96875 89.066406 53.5625 93.59375 49.324219 C 94.734375 48.253906 99.792969 44.21875 101.246094 45.222656 C 101.753906 46.480469 101.914062 47.789062 102.136719 49.117188 C 102.234375 49.707031 101.746094 50.339844 102.742188 50.160156 C 104.996094 46.855469 109.414062 44.191406 113.261719 43.21875 C 121.378906 41.171875 116.863281 49.4375 115.847656 53.902344 Z M 127.621094 77.039062 C 121.164062 70.597656 112.664062 64.636719 103.019531 67.0625 C 99.882812 67.855469 94.910156 70.847656 93.710938 73.992188 C 92.808594 76.363281 96.453125 76.335938 97.058594 76.851562 C 97.265625 77.023438 97.21875 77.878906 97.46875 78.296875 C 101.753906 85.496094 110.269531 84.933594 113.582031 77.234375 C 114.277344 77.351562 114.917969 77.621094 115.640625 77.644531 C 116.71875 77.691406 117.539062 76.675781 117.519531 77.816406 C 117.457031 82.054688 113.050781 88.488281 108.808594 89.476562 C 103.480469 90.726562 99.410156 88.347656 95.902344 84.667969 C 96.488281 90.769531 100.363281 95.226562 106.234375 96.773438 L 106.316406 97.328125 C 103.144531 109.835938 98.8125 122.238281 92.160156 133.304688 C 95.492188 131.90625 98.464844 128.679688 100.632812 125.777344 C 103.8125 121.515625 104.605469 118.53125 106.589844 113.855469 C 106.804688 113.335938 106.8125 112.625 107.535156 112.519531 C 105.289062 123.371094 98.886719 133.519531 102.972656 144.941406 L 112.941406 122.90625 C 109.71875 131.148438 107.847656 144.441406 113.65625 151.898438 C 113.921875 152.238281 113.65625 152.664062 114.609375 152.425781 C 114.464844 149.882812 114.714844 147.417969 115.222656 144.929688 C 115.730469 142.445312 117.601562 139.203125 117.914062 137.234375 C 118.785156 131.726562 117.199219 125.757812 119.820312 120.003906 C 120.105469 119.371094 119.765625 118.976562 120.84375 119.183594 C 119.960938 122.628906 119.089844 126.230469 118.769531 129.785156 C 118.582031 131.933594 118.902344 134.257812 118.757812 136.429688 C 118.632812 138.292969 117.824219 139.636719 117.914062 141.847656 C 118.101562 146.6875 120.703125 152.484375 125.824219 153.679688 C 125.761719 151.050781 125.253906 148.683594 125.414062 146 C 125.574219 143.316406 126.421875 137.785156 127.070312 135.183594 C 127.214844 134.605469 127.0625 133.890625 127.898438 133.722656 C 127.472656 141.867188 129.679688 151.953125 138.292969 154.917969 C 135.371094 147.53125 134.429688 139.523438 134.144531 131.636719 C 134.640625 130.980469 134.902344 131.636719 134.972656 132.253906 C 135.488281 136.664062 135.445312 139.851562 137.261719 144.101562 C 139.480469 149.289062 143.203125 152.078125 148.683594 153.253906 C 149.039062 152.808594 144.40625 144.191406 145.152344 142.445312 C 148.324219 148.03125 154.320312 151.203125 160.742188 150.757812 C 160.992188 149.625 160.40625 150.046875 159.914062 149.734375 C 149.695312 142.996094 142.960938 133.9375 140.796875 121.660156 C 141.519531 121.773438 141.519531 122.488281 141.742188 123.003906 C 144.609375 129.730469 146.207031 135.59375 151.203125 141.394531 C 152.226562 142.578125 158.035156 148.113281 159.503906 147.015625 C 157.964844 144.378906 156.414062 141.6875 155.503906 138.746094 C 155.34375 138.214844 155.210938 137.492188 155.96875 137.875 C 156.253906 138.015625 158.96875 141.472656 159.914062 142.242188 C 161.285156 143.34375 163.289062 144.566406 164.984375 145.074219 C 165.457031 145.214844 170.355469 146.203125 169.480469 144.949219 C 155.691406 137.054688 152.234375 119.636719 146.277344 105.996094 C 141.601562 95.285156 135.917969 85.28125 127.640625 77.03125 Z M 91.320312 81.753906 C 91.644531 79.898438 90.714844 78.324219 89.878906 76.78125 C 87.484375 77.609375 85.371094 78.722656 83.296875 80.167969 C 82.777344 80.523438 78.148438 83.972656 78.859375 84.667969 C 82.644531 82.625 87.019531 81.664062 91.332031 81.761719 Z M 173.207031 239.933594 C 173.535156 241.269531 173.207031 245.277344 173.207031 247 C 173.207031 256.773438 183.15625 270.886719 192.332031 274.429688 C 213.335938 282.554688 224.375 256.710938 222.253906 239.71875 C 224.570312 241.957031 224.890625 245.859375 225.949219 248.710938 C 226.066406 249.019531 225.871094 249.566406 226.609375 249.269531 C 228.773438 248.425781 234.574219 242.535156 236.140625 240.511719 C 242.066406 232.867188 248.898438 216.324219 248.855469 206.664062 C 248.84375 203.617188 243.742188 198.101562 243.035156 194.824219 L 249.484375 200.652344 C 254.054688 205.460938 258.214844 211.023438 259.667969 217.675781 C 260.65625 218.59375 261.851562 214.035156 261.964844 213.535156 C 264.90625 200.785156 256.703125 192.132812 246.769531 186.28125 C 246.234375 185.960938 245.71875 186.351562 245.949219 185.246094 C 258.894531 187.554688 268.726562 198.523438 268.816406 211.851562 L 270.019531 208.277344 C 271.078125 196.0625 265.816406 185.933594 253.992188 181.96875 C 253.351562 181.753906 252.808594 182.332031 253.023438 181.09375 C 262.820312 181.957031 271.683594 188.117188 276.300781 196.675781 L 279.613281 206.03125 C 284.894531 190.59375 273.804688 177.511719 258.9375 174.546875 C 257.34375 174.226562 255.292969 174.261719 253.644531 174.011719 C 252.925781 173.90625 252.941406 174.234375 253.023438 173.191406 C 267.195312 172.195312 280.949219 177.691406 289.179688 189.398438 C 291.753906 169.636719 267.808594 163.746094 253.226562 170.6875 L 253.03125 169.867188 C 263.019531 163.5625 275.773438 158 287.753906 161.949219 C 289.714844 162.589844 292.789062 164.023438 293.359375 166.117188 L 294.1875 165.914062 C 293.910156 150.675781 277.011719 149.582031 266.054688 154.820312 L 256.78125 159.882812 C 263.570312 151.070312 273.789062 143.140625 285.464844 143.257812 C 282.269531 140.351562 276.078125 140.484375 272.058594 141.277344 C 256.183594 144.441406 246.832031 164.960938 233.675781 166.492188 C 222.351562 167.8125 202.289062 160.949219 191.316406 156.984375 C 187.679688 155.667969 176.804688 150.339844 174.195312 149.992188 C 173.355469 149.875 172.386719 150.4375 171.378906 150.367188 C 169.527344 150.230469 167.539062 149.359375 165.765625 149.707031 L 167.835938 152.59375 C 167.34375 154.792969 154.515625 154.445312 152.46875 152.40625 C 152.058594 152.914062 156.574219 158.074219 149.386719 157.351562 C 146.390625 157.046875 143.90625 155.230469 141.234375 154.070312 C 143.0625 158.320312 144.566406 161.253906 138.464844 159.132812 C 134.714844 157.832031 131.695312 155.140625 129.386719 151.996094 C 128.949219 153.671875 130.375 155.59375 128.90625 157.011719 C 124.753906 158.535156 121.046875 155.695312 118.375 152.824219 C 118.519531 157.40625 118.75 161.359375 113.601562 157.386719 C 110.199219 154.765625 107.675781 149.539062 107.144531 145.339844 C 105.484375 146.757812 104.648438 153.582031 101.746094 150.125 C 98.503906 146.257812 98.117188 139.316406 97.796875 134.535156 L 92.980469 137.714844 C 83.742188 161.191406 80.453125 187.679688 92.027344 210.96875 C 103.5625 234.195312 126.839844 249.199219 151.621094 255.089844 C 152.28125 255.632812 151.578125 255.847656 151.007812 255.917969 C 144.503906 256.746094 137.5 254.527344 131.257812 253.011719 C 134.1875 267.144531 148.976562 282.085938 163.808594 272.890625 C 165.917969 271.578125 171.425781 266.261719 171.078125 263.722656 C 170.730469 261.183594 169.011719 258.234375 168.707031 255.25 C 168.15625 249.824219 169.179688 243.953125 172.394531 239.496094 C 172.617188 239.105469 173.195312 239.808594 173.234375 239.914062 Z M 156.164062 283.386719 L 152.421875 283.386719 C 152.421875 283.386719 152.183594 286.308594 152.183594 286.308594 L 155.328125 287.128906 Z M 204.792969 283.375 L 201.488281 283.8125 C 201.570312 284.820312 201.097656 287.636719 201.863281 288.1875 L 204.765625 287.921875 L 204.785156 283.367188 Z M 154.917969 287.957031 L 152.003906 287.535156 L 152.058594 289.558594 L 154.453125 289.996094 L 154.910156 287.957031 Z M 204.285156 291.191406 L 204.597656 289.203125 L 201.882812 288.792969 L 201.882812 291.707031 C 201.882812 291.707031 204.285156 291.199219 204.285156 291.199219 Z M 151.175781 295.019531 L 153.484375 294.621094 C 153.546875 293.753906 154.507812 291.5625 153.695312 291.046875 L 151.613281 290.878906 Z M 204.382812 292.527344 L 201.890625 292.527344 L 201.890625 295.859375 L 204.382812 295.859375 Z M 152.414062 300.011719 L 153.0625 296.257812 L 150.339844 295.859375 L 149.910156 299.589844 L 152.40625 300.011719 Z M 201.90625 302.476562 L 204.179688 302.523438 C 204.542969 301.890625 204.582031 299.777344 203.972656 299.351562 L 201.90625 299.609375 Z M 151.960938 300.890625 L 149.519531 300.011719 L 149.164062 302.863281 L 151.585938 303.753906 L 151.949219 300.890625 Z M 151.105469 304.652344 L 148.90625 303.761719 L 147.84375 306.664062 L 151.175781 307.085938 Z M 204.375 306.238281 L 203.984375 303.929688 L 201.460938 303.742188 L 201.871094 306.46875 L 204.375 306.230469 Z M 150.757812 307.914062 L 147.445312 307.074219 C 146.152344 312.136719 142.507812 315.523438 137.894531 317.667969 L 138.703125 318.953125 L 140.621094 318.292969 L 140.378906 316.636719 C 141.332031 316.484375 141.421875 317.605469 142.464844 317.3125 C 143.851562 316.921875 147.160156 313.082031 147.640625 313.035156 L 154.925781 315.386719 C 153.464844 314.230469 151.585938 313.167969 149.945312 312.269531 C 149.039062 311.769531 148.113281 311.238281 147.023438 311.238281 C 146.773438 309.070312 150.035156 311.601562 150.347656 311.238281 L 150.765625 307.914062 Z M 203.964844 307.484375 L 201.238281 307.878906 L 201.0625 310.808594 L 203.949219 310.371094 L 203.972656 307.484375 Z M 203.9375 311.683594 L 200.644531 311.234375 C 200.945312 318.398438 194.28125 320.289062 190.246094 324.539062 C 194.914062 323.066406 199.191406 319.816406 202.550781 316.316406 L 213.105469 319.96875 L 204.011719 315.34375 L 203.957031 313.730469 L 201.882812 314.140625 L 203.9375 313.285156 Z M 125.824219 314.558594 L 135.59375 314.558594 C 135.675781 314.558594 137.21875 314.175781 137.046875 313.730469 L 132.246094 313.714844 L 125.832031 314.558594 Z M 193.570312 317.054688 C 190.746094 317.070312 187.894531 317.507812 185.117188 317.945312 C 184.429688 318.050781 182.613281 318.097656 182.34375 318.703125 L 186.238281 318.648438 L 193.5625 317.046875 Z M 137.875 319.539062 C 137.734375 316.875 134.152344 319.566406 133.304688 320.789062 Z M 137.875 319.539062 " fill-opacity="1" fill-rule="nonzero"/></g><path fill="#000000" d="M 137.457031 169.476562 C 123.097656 202.460938 155.886719 231.59375 187.753906 228.914062 L 182.753906 224.5625 C 180.003906 221.1875 177.410156 217.472656 176.539062 213.125 L 181.105469 218.328125 C 186.800781 223.121094 198.515625 225.660156 205.835938 225.179688 L 209.371094 224.359375 C 206.601562 223.183594 203.761719 221.492188 201.347656 219.707031 C 200.882812 219.359375 196.609375 216.304688 197.320312 215.628906 C 205.757812 219.226562 217.050781 219.636719 224.328125 213.339844 C 224.328125 212.777344 218.734375 210.691406 217.792969 210.328125 C 215.929688 209.605469 209.347656 206.960938 207.875 206.898438 C 206.496094 206.84375 205.996094 208.222656 205.007812 208.964844 C 195.234375 216.234375 181.507812 214.691406 172.394531 207.09375 C 171.671875 205.417969 176.066406 207.902344 176.457031 208.027344 C 183.351562 210.128906 194.640625 210.648438 200.792969 206.40625 C 203.859375 204.296875 203.9375 202.433594 202.851562 199.082031 C 200.652344 192.3125 188.945312 181.140625 183.164062 176.78125 C 182.605469 176.355469 177.417969 173.53125 178.210938 172.800781 C 192.4375 175.972656 205.871094 186.40625 210.316406 200.542969 C 214.371094 201.570312 231.4375 207.777344 231.832031 212.109375 C 231.9375 213.230469 230.101562 216.089844 229.328125 217.0625 C 226.136719 221.054688 221.335938 222.828125 216.652344 224.339844 C 219.074219 228.921875 214.761719 230.375 211.054688 231.21875 C 206.328125 232.289062 200.667969 231.96875 195.886719 231.390625 C 193.835938 233.054688 194.203125 234.5 191.109375 235.378906 C 178.585938 238.945312 159.453125 232.726562 148.984375 225.519531 C 133.199219 214.65625 122.402344 192.75 132.835938 174.601562 C 133.164062 174.03125 136.621094 168.613281 137.476562 169.476562 Z M 137.457031 169.476562 " fill-opacity="1" fill-rule="nonzero"/><path fill="#000000" d="M 103.675781 71.464844 C 111.070312 70.109375 111.882812 79.695312 106.394531 80.828125 C 99.011719 82.351562 97.976562 72.503906 103.675781 71.464844 Z M 103.675781 71.464844 " fill-opacity="1" fill-rule="nonzero"/></svg>